# xmcd CD database file
#
# Track frame offsets:
#	150
#	15125
#	29892
#	46430
#	71262
#	89050
#	102730
#	117527
#	134532
#	148595
#	162035
#	180282
#	195807
#	211977
#	229150
#
# Disc length: 3296 seconds
#
# Revision: 2
# Processed by: cddbd v1.4b41PL1 Copyright (c) Steve Scherf et al.
# Submitted via: Feurio! 1.60 - http://www.feurio.com
#
DISCID=c90cde0f,cf0cde0f
DTITLE=Various Artist - SOLID GOLD SOUL 1978 - 1979  CD 2
DYEAR=1900
DGENRE=
TTITLE0=Anita Ward - Ring my bell
TTITLE1=Tavares - More than a woman
TTITLE2=Taste Of Honey - Boogie oogie oogie
TTITLE3=Chic - Le freak
TTITLE4=Peaches and Herb - Shake your groove thing
TTITLE5=Michael Zager Band - Let's all chant
TTITLE6=Edwin Starr - H.A.P.P.Y. Radio
TTITLE7=Amii Stewart - Knock on wood
TTITLE8=Quincy Jones - Stuff like that
TTITLE9=Yvonne Elliman - If I can't have you
TTITLE10=Commodores - Sail on
TTITLE11=Pointer Sisters - Fire
TTITLE12=Earth Wind and Fire - September
TTITLE13=Donna Summer - Hot stuff
TTITLE14=Sugarhill Gang - Rapper's delight
EXTD=
EXTT0=
EXTT1=
EXTT2=
EXTT3=
EXTT4=
EXTT5=
EXTT6=
EXTT7=
EXTT8=
EXTT9=
EXTT10=
EXTT11=
EXTT12=
EXTT13=
EXTT14=
PLAYORDER=
